<svg width="648" height="459" viewBox="0 0 648 459" fill="none" xmlns="http://www.w3.org/2000/svg">
<g clip-path="url(#clip0_3_17)">
<g filter="url(#filter0_d_3_17)">
<path d="M200.606 132.987C225.238 89.615 263.986 45.461 322.161 23.1701C380.335 0.879114 438.667 7.83459 485.975 23.6418C533.098 39.5194 571.869 64.3561 594.496 84.6843C602.061 91.2459 605.84 101.109 604.597 111.046C601.038 140.482 589.101 185.674 564.653 228.976C540.022 272.348 501.273 316.502 443.099 338.793C384.924 361.084 326.592 354.129 279.285 338.321C259.679 331.643 241.472 323.401 225.262 314.599L160.942 393.025C151.971 403.969 136.74 407.748 123.797 402.219C110.853 396.69 103.446 383.281 105.711 369.457L120.201 281.537L50.67 225.812C39.7472 217.041 36.2977 202.115 42.2327 189.353C48.1665 176.59 62.0231 169.224 76.0101 171.371L176.268 186.736C182.446 169.355 190.483 151.057 200.606 132.987ZM445.042 124.161C428.801 130.384 420.592 148.234 426.674 164.105C432.755 179.976 450.789 187.77 467.031 181.547C483.272 175.324 491.48 157.474 485.399 141.603C479.318 125.732 461.283 117.938 445.042 124.161Z" fill="url(#paint0_linear_3_17)"/>
<path d="M592.825 86.544L592.841 86.5586L592.858 86.5729C599.793 92.588 603.256 101.626 602.116 110.736L602.115 110.746C598.592 139.886 586.748 184.755 562.479 227.742C538.03 270.793 499.67 314.44 442.204 336.459C384.742 358.477 327.041 351.641 280.085 335.953C260.626 329.325 242.551 321.142 226.454 312.402L224.639 311.416L223.328 313.014L159.009 391.439L159.008 391.44C150.735 401.532 136.69 405.008 124.779 399.92L123.799 402.214L124.779 399.92C112.886 394.84 106.101 382.542 108.177 369.863C108.177 369.862 108.178 369.862 108.178 369.861L122.668 281.944L122.905 280.501L121.764 279.586L52.2354 223.863C42.2168 215.818 39.0459 202.134 44.4996 190.407L44.4997 190.407C49.9601 178.662 62.732 171.862 75.6308 173.842L75.6314 173.842L175.889 189.207L177.931 189.52L178.623 187.573C184.758 170.315 192.737 152.149 202.784 134.216C227.233 91.1666 265.592 47.5227 323.055 25.5046C380.521 3.48537 438.225 10.3227 485.182 26.013C531.983 41.7826 570.454 66.4454 592.825 86.544ZM444.147 121.827C426.668 128.524 417.745 147.789 424.339 165C430.934 182.21 450.446 190.579 467.925 183.882C485.405 177.184 494.328 157.919 487.733 140.709C481.139 123.498 461.627 115.129 444.147 121.827Z" stroke="#566E94" stroke-width="5"/>
</g>
</g>
<defs>
<filter id="filter0_d_3_17" x="25.3541" y="-2.01434" width="605.476" height="435.756" filterUnits="userSpaceOnUse" color-interpolation-filters="sRGB">
<feFlood flood-opacity="0" result="BackgroundImageFix"/>
<feColorMatrix in="SourceAlpha" type="matrix" values="0 0 0 0 0 0 0 0 0 0 0 0 0 0 0 0 0 0 127 0" result="hardAlpha"/>
<feOffset dx="6" dy="9"/>
<feGaussianBlur stdDeviation="10"/>
<feComposite in2="hardAlpha" operator="out"/>
<feColorMatrix type="matrix" values="0 0 0 0 0 0 0 0 0 0 0 0 0 0 0 0 0 0 0.25 0"/>
<feBlend mode="normal" in2="BackgroundImageFix" result="effect1_dropShadow_3_17"/>
<feBlend mode="normal" in="SourceGraphic" in2="effect1_dropShadow_3_17" result="shape"/>
</filter>
<linearGradient id="paint0_linear_3_17" x1="50.0989" y1="235.903" x2="609.513" y2="115.676" gradientUnits="userSpaceOnUse">
<stop offset="0.364583" stop-color="#82A4DE"/>
<stop offset="1" stop-color="#8FD4E3"/>
</linearGradient>
<clipPath id="clip0_3_17">
<rect width="648" height="459" fill="white"/>
</clipPath>
</defs>
</svg>
